<svg height="512" viewBox="0 0 64 64" width="512" xmlns="http://www.w3.org/2000/svg"><g id="man-medical_mask-prevention-boy-avatar" data-name="man-medical mask-prevention-boy-avatar"><path d="m37 13-17 5v7c0 .34.01.67.04 1s.07.65.12.97a12.006 12.006 0 0 0 7.84 9.34 11.939 11.939 0 0 0 8 0 12.006 12.006 0 0 0 7.84-9.34c.05-.32.09-.64.12-.97s.04-.66.04-1v-7z" fill="#ffc477"/><path d="m44 18v7c0 .34-.01.67-.04 1s-.07.65-.12.97a12.006 12.006 0 0 1 -7.84 9.34 11.8 11.8 0 0 1 -4 .69 12 12 0 0 1 -2-.17 11.082 11.082 0 0 0 2-.52 12.006 12.006 0 0 0 7.84-9.34c.05-.32.09-.64.12-.97s.04-.66.04-1v-7l-5.83-4.17 2.83-.83z" fill="#ffa733"/><path d="m41.24 42.38 4.76 7.62-5 2 5 4-6 5v-16-2.95z" fill="#57565c"/><path d="m24 45v16l-6-5 5-4-5-2 4.76-7.62 1.24-.33z" fill="#57565c"/><path d="m55 52.17v8.83h-15l6-5-5-4 5-2-4.76-7.62 7.8 2.05a8 8 0 0 1 5.96 7.74z" fill="#898890"/><path d="m55 52.17v8.83h-4v-8.83a8 8 0 0 0 -5.96-7.74l-3.01-.79-.79-1.26 7.8 2.05a8 8 0 0 1 5.96 7.74z" fill="#787680"/><path d="m47 19.36a4 4 0 0 1 -3 6.64h-.04c.03-.33.04-.66.04-1v-7a3.984 3.984 0 0 1 3 1.36z" fill="#ffc477"/><path d="m47 18v1.36a3.984 3.984 0 0 0 -3-1.36l-7-5-17 5a3.984 3.984 0 0 0 -3 1.36v-1.36a15 15 0 0 1 30 0z" fill="#ffd422"/><path d="m47 18v1.36a3.984 3.984 0 0 0 -3-1.36l-1.02-.73a15.013 15.013 0 0 0 -12.98-14.13 14.6 14.6 0 0 1 2-.14 15.023 15.023 0 0 1 15 15z" fill="#ebbf00"/><path d="m32 25 11.84 1.97a12.006 12.006 0 0 1 -7.84 9.34 11.939 11.939 0 0 1 -8 0 12.006 12.006 0 0 1 -7.84-9.34z" fill="#ddfffb"/><path d="m40 45v16h-16v-16a15 15 0 0 0 8 2 15 15 0 0 0 8-2z" fill="#c0ab91"/><path d="m40 42.05v2.95a15 15 0 0 1 -8 2 15 15 0 0 1 -8-2v-2.95l4-1.05v-4.69a11.939 11.939 0 0 0 8 0v4.69z" fill="#ffc477"/><path d="m24 61h-15v-8.83a8 8 0 0 1 5.96-7.74l7.8-2.05-4.76 7.62 5 2-5 4z" fill="#898890"/><path d="m20.04 26h-.04a4 4 0 0 1 -3-6.64 3.984 3.984 0 0 1 3-1.36v7c0 .34.01.67.04 1z" fill="#ffc477"/><path d="m43.84 26.97a12.006 12.006 0 0 1 -7.84 9.34 11.8 11.8 0 0 1 -4 .69 12 12 0 0 1 -2-.17 11.082 11.082 0 0 0 2-.52 12.006 12.006 0 0 0 7.84-9.34l-9.84-1.64 2-.33z" fill="#46f8ff"/><path d="m26 20a3 3 0 0 0 -3 3h2a1 1 0 0 1 2 0h2a3 3 0 0 0 -3-3z"/><path d="m38 22a1 1 0 0 1 1 1h2a3 3 0 0 0 -6 0h2a1 1 0 0 1 1-1z"/><path d="m49.29 43.46-12.29-3.23v-3.23a13.022 13.022 0 0 0 7.84-10.08 4.967 4.967 0 0 0 3.16-7.89v-1.03a16 16 0 0 0 -32 0v1.03a4.939 4.939 0 0 0 -1 2.97 4.982 4.982 0 0 0 4.16 4.92 13.037 13.037 0 0 0 7.84 10.08v3.23l-12.3 3.23a9.03 9.03 0 0 0 -6.7 8.71v8.83a1 1 0 0 0 1 1h46a1 1 0 0 0 1-1v-8.83a9.028 9.028 0 0 0 -6.71-8.71zm-8.29.42 3.52 5.64-3.52 1.4zm6-21.88a3.022 3.022 0 0 1 -.87 2.12 2.951 2.951 0 0 1 -1.13.69v-5.63a3.01 3.01 0 0 1 2 2.82zm-28 2.82a3.179 3.179 0 0 1 -1.12-.69 3 3 0 0 1 1.12-4.95zm-.97-7.41a13.973 13.973 0 0 1 23.86-9.3 13.808 13.808 0 0 1 4.08 9.3 4.738 4.738 0 0 0 -1.6-.37l-6.79-4.85a1.015 1.015 0 0 0 -.86-.15l-16.94 4.98a4.859 4.859 0 0 0 -1.75.39zm2.97 7.59v-6.25l15.82-4.65 6.18 4.41v6.49c0 .27-.02.54-.04.81l-10.8-1.8a1.71 1.71 0 0 0 -.32 0l-10.8 1.8c-.02-.27-.04-.54-.04-.81zm.37 2.78 10.63-1.77 10.63 1.77a10.983 10.983 0 0 1 -21.26 0zm-11.37 32.22v-7.83a7.008 7.008 0 0 1 5.21-6.77l5.37-1.41-3.43 5.48a1.032 1.032 0 0 0 -.1.84.99.99 0 0 0 .58.62l3.41 1.36-3.66 2.93a.981.981 0 0 0 -.38.77 1.013 1.013 0 0 0 .36.78l3.88 3.23zm13-1.13-3.42-2.85 3.42-2.74zm0-7.95-3.52-1.4 3.52-5.64zm16 9.08h-14v-13.33a17.758 17.758 0 0 0 7 1.33 17.758 17.758 0 0 0 7-1.33zm0-15.57a14.846 14.846 0 0 1 -7 1.57 14.846 14.846 0 0 1 -7-1.57v-1.61l3.25-.85a1.014 1.014 0 0 0 .75-.97v-3.36a12.68 12.68 0 0 0 6 0v3.36a1.014 1.014 0 0 0 .75.97l3.25.85zm2 8.85 3.42 2.74-3.42 2.85zm13 6.72h-11.24l3.88-3.23a1.013 1.013 0 0 0 .36-.78.981.981 0 0 0 -.38-.77l-3.66-2.93 3.41-1.36a.99.99 0 0 0 .58-.62 1.032 1.032 0 0 0 -.1-.84l-3.43-5.48 5.36 1.41a7.006 7.006 0 0 1 5.22 6.77z"/></g></svg>