<svg id="Layer_1" enable-background="new 0 0 511.448 511.448" height="512" viewBox="0 0 511.448 511.448" width="512" xmlns="http://www.w3.org/2000/svg" fill="#ffffff"><path d="m436.508 74.94c-99.913-99.913-261.64-99.928-361.567 0-99.913 99.913-99.928 261.64 0 361.567 99.913 99.913 261.64 99.927 361.567 0 99.912-99.912 99.927-261.639 0-361.567zm-287.451 53.117h53.333c11.598 0 21 9.402 21 21s-9.402 21-21 21h-53.333c-11.598 0-21-9.402-21-21s9.402-21 21-21zm-21 85c0-11.598 9.402-21 21-21h53.333c11.598 0 21 9.402 21 21s-9.402 21-21 21h-53.333c-11.598 0-21-9.401-21-21zm221.117-22.608c-5.188 10.374-17.801 14.577-28.175 9.392l-33.608-16.805v136.688c0 35.106-28.561 63.667-63.667 63.667s-63.667-28.561-63.667-63.667 28.561-63.667 63.667-63.667h21.667v-107c0-15.608 16.456-25.749 30.392-18.783l64 32c10.373 5.187 14.577 17.801 9.391 28.175z"/></svg>